HIERARCHY
ROOT newVegas:Hips
{
	OFFSET 0.000000 96.479958 0.000000
	CHANNELS 6 Xposition Yposition Zposition Xrotation Yrotation Zrotation
	JOINT newVegas:Pelvis
	{
		OFFSET 0.000000 0.000000 0.000000
		CHANNELS 3 Xrotation Yrotation Zrotation
		JOINT newVegas:LeftUpLeg
		{
			OFFSET 18.735201 -5.666702 -4.541200
			CHANNELS 3 Xrotation Yrotation Zrotation
			JOINT newVegas:LeftLeg
			{
				OFFSET -0.021200 -31.938179 0.493100
				CHANNELS 3 Xrotation Yrotation Zrotation
				JOINT newVegas:LeftFoot
				{
					OFFSET 0.021200 -31.938179 -4.336299
					CHANNELS 3 Xrotation Yrotation Zrotation
					JOINT newVegas:LeftToeBase
					{
						OFFSET 0.943001 -26.722000 15.023500
						CHANNELS 3 Xrotation Yrotation Zrotation
						End Site
						{
							OFFSET 0.000000 30.670183 0.000000
						}
					}
				}
				JOINT newVegas:Left_PantLeg
				{
					OFFSET 0.663870 -9.044666 -1.108900
					CHANNELS 3 Xrotation Yrotation Zrotation
					End Site
					{
						OFFSET 1.415995 20.635357 0.000000
					}
				}
			}
		}
		JOINT newVegas:RightUpLeg
		{
			OFFSET -18.735201 -5.666702 -4.541200
			CHANNELS 3 Xrotation Yrotation Zrotation
			JOINT newVegas:RightLeg
			{
				OFFSET 0.018946 -31.938133 0.493100
				CHANNELS 3 Xrotation Yrotation Zrotation
				JOINT newVegas:RightFoot
				{
					OFFSET -0.018946 -31.938126 -4.336299
					CHANNELS 3 Xrotation Yrotation Zrotation
					JOINT newVegas:RightToeBase
					{
						OFFSET -0.943001 -26.722004 15.023500
						CHANNELS 3 Xrotation Yrotation Zrotation
						End Site
						{
							OFFSET 0.000000 30.670187 0.000000
						}
					}
				}
				JOINT newVegas:Right_PantLeg
				{
					OFFSET -0.661674 -9.044716 -1.108900
					CHANNELS 3 Xrotation Yrotation Zrotation
					End Site
					{
						OFFSET -1.415958 20.635269 0.000000
					}
				}
			}
		}
	}
	JOINT newVegas:Spine
	{
		OFFSET 0.000000 10.199997 -0.299500
		CHANNELS 3 Xrotation Yrotation Zrotation
		JOINT newVegas:Spine1
		{
			OFFSET 0.000000 11.900002 -1.516600
			CHANNELS 3 Xrotation Yrotation Zrotation
			JOINT newVegas:Spine2
			{
				OFFSET 0.000000 13.600006 -2.842500
				CHANNELS 3 Xrotation Yrotation Zrotation
				JOINT newVegas:Neck
				{
					OFFSET 0.000000 9.624100 -2.890100
					CHANNELS 3 Xrotation Yrotation Zrotation
					JOINT newVegas:Head
					{
						OFFSET 0.000000 14.068802 -1.351900
						CHANNELS 3 Xrotation Yrotation Zrotation
						JOINT newVegas:Hair_Back
						{
							OFFSET 0.000000 3.231903 -17.524799
							CHANNELS 3 Xrotation Yrotation Zrotation
							End Site
							{
								OFFSET 0.000000 19.849884 0.000000
							}
						}
						JOINT newVegas:Hair_Front
						{
							OFFSET 0.000000 31.260406 4.573800
							CHANNELS 3 Xrotation Yrotation Zrotation
							JOINT newVegas:Hair_Front1
							{
								OFFSET 0.000000 2.284103 11.993300
								CHANNELS 3 Xrotation Yrotation Zrotation
								JOINT newVegas:Hair_Front2
								{
									OFFSET 0.000000 2.284103 11.993300
									CHANNELS 3 Xrotation Yrotation Zrotation
									End Site
									{
										OFFSET 0.000000 12.208862 0.000000
									}
								}
							}
						}
						JOINT newVegas:Jowel
						{
							OFFSET 0.000000 -7.458206 6.864100
							CHANNELS 3 Xrotation Yrotation Zrotation
							End Site
							{
								OFFSET 0.000000 19.849884 0.000000
							}
						}
					}
				}
				JOINT newVegas:LeftShoulder
				{
					OFFSET 15.263000 10.923401 -0.547700
					CHANNELS 3 Xrotation Yrotation Zrotation
					JOINT newVegas:LeftArm
					{
						OFFSET 25.438599 -2.830597 -13.032500
						CHANNELS 3 Xrotation Yrotation Zrotation
						JOINT newVegas:LeftForeArm
						{
							OFFSET 29.960503 0.000000 0.000000
							CHANNELS 3 Xrotation Yrotation Zrotation
							JOINT newVegas:LeftHand
							{
								OFFSET 27.849251 0.000000 0.000000
								CHANNELS 3 Xrotation Yrotation Zrotation
								JOINT newVegas:LeftHandThumb1
								{
									OFFSET 4.487587 -3.305161 6.305391
									CHANNELS 3 Xrotation Yrotation Zrotation
									JOINT newVegas:LeftHandThumb2
									{
										OFFSET 5.480453 -3.164139 3.164143
										CHANNELS 3 Xrotation Yrotation Zrotation
										JOINT newVegas:LeftHandThumb3
										{
											OFFSET 5.159721 -2.978973 2.978967
											CHANNELS 3 Xrotation Yrotation Zrotation
											End Site
											{
												OFFSET 2.494507 5.926697 1.738678
											}
										}
									}
								}
								JOINT newVegas:LeftHandIndex1
								{
									OFFSET 18.578728 -0.527832 5.208049
									CHANNELS 3 Xrotation Yrotation Zrotation
									JOINT newVegas:LeftHandIndex2
									{
										OFFSET 3.192009 0.000000 0.000000
										CHANNELS 3 Xrotation Yrotation Zrotation
										JOINT newVegas:LeftHandIndex3
										{
											OFFSET 3.835129 0.000000 0.000000
											CHANNELS 3 Xrotation Yrotation Zrotation
											End Site
											{
												OFFSET -0.034599 3.816971 0.371180
											}
										}
									}
								}
								JOINT newVegas:LeftHandMiddle1
								{
									OFFSET 18.476105 0.000000 0.000000
									CHANNELS 3 Xrotation Yrotation Zrotation
									JOINT newVegas:LeftHandMiddle2
									{
										OFFSET 3.324875 0.000000 0.000000
										CHANNELS 3 Xrotation Yrotation Zrotation
										JOINT newVegas:LeftHandMiddle3
										{
											OFFSET 4.596550 0.000000 0.000000
											CHANNELS 3 Xrotation Yrotation Zrotation
											End Site
											{
												OFFSET 0.057701 4.578827 0.399218
											}
										}
									}
								}
								JOINT newVegas:LeftHandRing1
								{
									OFFSET 17.732719 0.121887 -4.201567
									CHANNELS 3 Xrotation Yrotation Zrotation
									JOINT newVegas:LeftHandRing2
									{
										OFFSET 2.733170 0.000000 0.000000
										CHANNELS 3 Xrotation Yrotation Zrotation
										JOINT newVegas:LeftHandRing3
										{
											OFFSET 3.178268 0.000000 0.000000
											CHANNELS 3 Xrotation Yrotation Zrotation
											End Site
											{
												OFFSET 0.119102 3.170624 0.185394
											}
										}
									}
								}
								JOINT newVegas:LeftHandPinky1
								{
									OFFSET 15.989624 -0.606689 -7.535461
									CHANNELS 3 Xrotation Yrotation Zrotation
									JOINT newVegas:LeftHandPinky2
									{
										OFFSET 2.538986 0.000000 0.000000
										CHANNELS 3 Xrotation Yrotation Zrotation
										JOINT newVegas:LeftHandPinky3
										{
											OFFSET 2.593102 0.000000 0.000000
											CHANNELS 3 Xrotation Yrotation Zrotation
											End Site
											{
												OFFSET -0.150902 2.584198 0.152708
											}
										}
									}
								}
							}
							JOINT newVegas:Left_Sleeve
							{
								OFFSET 0.267448 -0.649796 0.577675
								CHANNELS 3 Xrotation Yrotation Zrotation
								End Site
								{
									OFFSET 0.000000 15.991241 0.000000
								}
							}
							JOINT newVegas:Left_CapeC
							{
								OFFSET 15.715958 -8.608795 -6.935905
								CHANNELS 3 Xrotation Yrotation Zrotation
								JOINT newVegas:Left_CapeC1
								{
									OFFSET 0.000000 -8.688499 0.000000
									CHANNELS 3 Xrotation Yrotation Zrotation
									End Site
									{
										OFFSET 0.000000 8.688499 0.000000
									}
								}
							}
						}
						JOINT newVegas:Left_CapeB
						{
							OFFSET 26.118385 -8.608795 -7.079235
							CHANNELS 3 Xrotation Yrotation Zrotation
							JOINT newVegas:Left_CapeB1
							{
								OFFSET 0.000000 -8.688499 0.000000
								CHANNELS 3 Xrotation Yrotation Zrotation
								End Site
								{
									OFFSET 0.000000 8.688499 0.000000
								}
							}
						}
						JOINT newVegas:Left_CapeA
						{
							OFFSET 5.115639 -8.608795 -10.395809
							CHANNELS 3 Xrotation Yrotation Zrotation
							JOINT newVegas:Left_CapeA1
							{
								OFFSET 0.000000 -8.688499 0.000000
								CHANNELS 3 Xrotation Yrotation Zrotation
								End Site
								{
									OFFSET 0.000000 8.688499 0.000000
								}
							}
						}
					}
				}
				JOINT newVegas:RightShoulder
				{
					OFFSET -15.263000 10.923401 -0.547700
					CHANNELS 3 Xrotation Yrotation Zrotation
					JOINT newVegas:RightArm
					{
						OFFSET -25.438599 -2.830597 -13.032500
						CHANNELS 3 Xrotation Yrotation Zrotation
						JOINT newVegas:RightForeArm
						{
							OFFSET -29.960503 0.000000 0.000000
							CHANNELS 3 Xrotation Yrotation Zrotation
							JOINT newVegas:RightHand
							{
								OFFSET -27.849251 0.000000 0.000000
								CHANNELS 3 Xrotation Yrotation Zrotation
								JOINT newVegas:RightHandThumb1
								{
									OFFSET -4.487587 -3.305161 6.305391
									CHANNELS 3 Xrotation Yrotation Zrotation
									JOINT newVegas:RightHandThumb2
									{
										OFFSET -5.480453 -3.164139 3.164143
										CHANNELS 3 Xrotation Yrotation Zrotation
										JOINT newVegas:RightHandThumb3
										{
											OFFSET -5.159721 -2.978973 2.978967
											CHANNELS 3 Xrotation Yrotation Zrotation
											End Site
											{
												OFFSET -2.494507 5.926697 1.738678
											}
										}
									}
								}
								JOINT newVegas:RightHandIndex1
								{
									OFFSET -18.578728 -0.527832 5.208049
									CHANNELS 3 Xrotation Yrotation Zrotation
									JOINT newVegas:RightHandIndex2
									{
										OFFSET -3.192009 0.000000 0.000000
										CHANNELS 3 Xrotation Yrotation Zrotation
										JOINT newVegas:RightHandIndex3
										{
											OFFSET -3.835129 0.000000 0.000000
											CHANNELS 3 Xrotation Yrotation Zrotation
											End Site
											{
												OFFSET 0.034599 3.816971 0.371180
											}
										}
									}
								}
								JOINT newVegas:RightHandMiddle1
								{
									OFFSET -18.476105 0.000000 0.000000
									CHANNELS 3 Xrotation Yrotation Zrotation
									JOINT newVegas:RightHandMiddle2
									{
										OFFSET -3.324875 0.000000 0.000000
										CHANNELS 3 Xrotation Yrotation Zrotation
										JOINT newVegas:RightHandMiddle3
										{
											OFFSET -4.596550 0.000000 0.000000
											CHANNELS 3 Xrotation Yrotation Zrotation
											End Site
											{
												OFFSET -0.057701 4.578827 0.399218
											}
										}
									}
								}
								JOINT newVegas:RightHandRing1
								{
									OFFSET -17.732719 0.121887 -4.201567
									CHANNELS 3 Xrotation Yrotation Zrotation
									JOINT newVegas:RightHandRing2
									{
										OFFSET -2.733170 0.000000 0.000000
										CHANNELS 3 Xrotation Yrotation Zrotation
										JOINT newVegas:RightHandRing3
										{
											OFFSET -3.178268 0.000000 0.000000
											CHANNELS 3 Xrotation Yrotation Zrotation
											End Site
											{
												OFFSET -0.119102 3.170624 0.185394
											}
										}
									}
								}
								JOINT newVegas:RightHandPinky1
								{
									OFFSET -15.989624 -0.606689 -7.535461
									CHANNELS 3 Xrotation Yrotation Zrotation
									JOINT newVegas:RightHandPinky2
									{
										OFFSET -2.538986 0.000000 0.000000
										CHANNELS 3 Xrotation Yrotation Zrotation
										JOINT newVegas:RightHandPinky3
										{
											OFFSET -2.593102 0.000000 0.000000
											CHANNELS 3 Xrotation Yrotation Zrotation
											End Site
											{
												OFFSET 0.150902 2.584198 0.152708
											}
										}
									}
								}
							}
							JOINT newVegas:Right_CapeC
							{
								OFFSET -15.715958 -8.608795 -6.935905
								CHANNELS 3 Xrotation Yrotation Zrotation
								JOINT newVegas:Right_CapeC1
								{
									OFFSET 0.000000 -8.688499 0.000000
									CHANNELS 3 Xrotation Yrotation Zrotation
									End Site
									{
										OFFSET 0.000000 8.688499 0.000000
									}
								}
							}
							JOINT newVegas:Right_Sleeve
							{
								OFFSET -0.267448 -0.649994 0.577675
								CHANNELS 3 Xrotation Yrotation Zrotation
								End Site
								{
									OFFSET 0.000000 15.991302 0.000000
								}
							}
						}
						JOINT newVegas:Right_CapeA
						{
							OFFSET -5.115540 -8.608795 -10.395824
							CHANNELS 3 Xrotation Yrotation Zrotation
							JOINT newVegas:Right_CapeA1
							{
								OFFSET 0.000000 -8.688499 0.000000
								CHANNELS 3 Xrotation Yrotation Zrotation
								End Site
								{
									OFFSET 0.000000 8.688499 0.000000
								}
							}
						}
						JOINT newVegas:Right_CapeB
						{
							OFFSET -26.118187 -8.608795 -7.079266
							CHANNELS 3 Xrotation Yrotation Zrotation
							JOINT newVegas:Right_CapeB1
							{
								OFFSET 0.000000 -8.688499 0.000000
								CHANNELS 3 Xrotation Yrotation Zrotation
								End Site
								{
									OFFSET 0.000000 8.688499 0.000000
								}
							}
						}
					}
				}
				JOINT newVegas:Left_Collar
				{
					OFFSET 18.625099 8.655502 8.828100
					CHANNELS 3 Xrotation Yrotation Zrotation
					JOINT newVegas:Left_Collar1
					{
						OFFSET 14.783401 10.540405 -1.259500
						CHANNELS 3 Xrotation Yrotation Zrotation
						End Site
						{
							OFFSET 0.000000 18.199875 0.000000
						}
					}
				}
				JOINT newVegas:Collar_Back
				{
					OFFSET 0.000000 15.630707 -20.132601
					CHANNELS 3 Xrotation Yrotation Zrotation
					End Site
					{
						OFFSET 0.000000 22.523010 0.000000
					}
				}
				JOINT newVegas:Left_Peck
				{
					OFFSET 17.239599 -5.132599 25.482599
					CHANNELS 3 Xrotation Yrotation Zrotation
					End Site
					{
						OFFSET 0.000000 22.523010 0.000000
					}
				}
				JOINT newVegas:Right_Peck
				{
					OFFSET -17.239599 -5.132202 25.482599
					CHANNELS 3 Xrotation Yrotation Zrotation
					End Site
					{
						OFFSET 0.000000 22.523010 0.000000
					}
				}
				JOINT newVegas:Right_Collar
				{
					OFFSET -18.625099 8.655792 8.828100
					CHANNELS 3 Xrotation Yrotation Zrotation
					JOINT newVegas:Right_Collar1
					{
						OFFSET -14.783401 10.539993 -1.259500
						CHANNELS 3 Xrotation Yrotation Zrotation
						End Site
						{
							OFFSET 0.000000 18.199631 0.000000
						}
					}
				}
			}
		}
		JOINT newVegas:Belly
		{
			OFFSET 0.000000 -6.540398 9.014299
			CHANNELS 3 Xrotation Yrotation Zrotation
			End Site
			{
				OFFSET 0.000000 11.566666 0.000000
			}
		}
	}
	JOINT newVegas:ElvisFacialAnim_Joint
	{
		OFFSET 1.000000 -95.330101 -8.825800
		CHANNELS 3 Xrotation Yrotation Zrotation
		End Site
		{
			OFFSET 0.000000 35.315800 0.000000
		}
	}
}
MOTION
Frames: 4
Frame Time: 0.033333
-1.128462 86.730171 -4.273369 5.303986 -1.350886 -0.931574 -0.000000 0.000000 -0.000000 -34.724743 -3.722095 -0.919323 56.047091 5.482870 -1.796392 -26.266117 14.140594 -0.853265 0.000000 0.000000 -0.000000 -0.000001 0.000000 0.000000 -34.520835 1.894908 2.444180 54.188221 2.041774 0.896343 -26.161588 -17.900485 -1.275733 -0.000000 -0.000001 -0.000000 0.000001 0.000000 -0.000000 14.844923 0.851566 0.382489 8.450576 0.430205 -0.103345 8.446482 0.494000 -0.145801 -1.045097 -0.373617 1.077701 -1.045097 -0.373617 1.077701 -0.000001 0.000000 -0.000000 -1.044968 -0.373617 1.077702 -1.045247 -0.373614 1.077700 0.000002 0.000000 -0.000000 -0.000001 0.000000 -0.000000 4.924070 -15.664904 -5.412170 -34.937849 -41.227483 -51.686572 -0.000014 -11.593586 0.000012 10.970444 -4.871933 -13.563320 -4.848689 -5.306240 3.021427 4.839650 4.829215 0.508164 0.000001 0.000003 -0.000001 -0.675320 -7.756140 -8.628411 0.194554 1.498695 -14.791864 -0.000000 -0.000001 0.000001 0.825696 5.750987 -16.647148 0.419627 2.179117 -21.796705 0.000001 -0.000001 -0.000002 5.401494 14.037552 -27.101663 0.596559 2.577549 -26.058627 -0.000001 -0.000001 0.000001 6.188098 21.204971 -33.472520 0.910965 3.139218 -32.356737 -0.000003 -0.000003 0.000001 -0.000001 0.000001 -0.000002 -0.000001 0.000001 -0.000002 -0.000002 0.000002 -0.000002 -0.000001 0.000001 0.000001 -0.000001 0.000001 0.000002 -0.000001 0.000001 0.000001 -0.000003 0.000001 0.000001 6.880748 5.999866 13.820659 -39.423002 41.516369 61.200640 0.000006 11.942431 0.000001 34.362764 14.364682 -6.489759 -5.637083 7.021741 -2.078173 5.327330 -6.334992 -1.352094 0.000000 -0.000000 -0.000000 -0.813670 9.018432 9.586410 0.228217 -1.441414 17.992064 -0.000000 0.000002 0.000001 0.769418 -5.269175 17.586653 0.425363 -1.946252 24.654531 0.000001 0.000001 0.000001 6.008953 -14.226281 28.742498 0.583294 -2.258601 28.957239 -0.000000 -0.000001 0.000003 6.800662 -21.601581 34.983491 0.839498 -2.669285 34.911477 0.000001 0.000003 -0.000000 0.000001 0.000001 -0.000001 0.000001 0.000001 -0.000001 0.000001 0.000001 -0.000001 0.000001 0.000000 0.000000 0.000001 0.000000 -0.000000 0.000001 0.000000 0.000000 0.000001 -0.000000 -0.000000 -0.000002 0.000000 -0.000000 -0.000002 0.000000 -0.000000 -0.000002 0.000000 -0.000000 -0.000002 0.000000 -0.000000 -0.000002 0.000000 -0.000000 -0.000002 0.000000 -0.000000 -0.000002 0.000000 -0.000000 -0.000000 -0.000000 0.000000 -0.000000 0.000000 -0.000000 
-1.064684 85.489159 -4.885645 5.990888 -1.139674 -0.775198 -0.000000 -0.000000 -0.000000 -38.096794 -4.072712 -1.629303 59.794891 5.656918 -1.654402 -27.283980 14.483664 -1.096054 -0.000000 0.000000 -0.000000 0.000003 -0.000000 0.000000 -37.921473 2.218955 2.547582 58.340983 1.882191 0.852863 -27.585959 -18.326460 -1.147635 -0.000000 -0.000001 0.000000 -0.000001 0.000000 -0.000000 15.900397 0.956877 0.383762 8.843089 0.478773 -0.104068 8.837868 0.554165 -0.158671 -0.244034 -0.413119 0.927112 -0.243994 -0.413118 0.927112 0.000002 -0.000000 0.000000 -0.243978 -0.413118 0.927113 -0.244082 -0.413118 0.927111 0.000000 -0.000000 0.000000 0.000002 -0.000000 0.000000 4.999225 -16.040887 -5.782009 -36.093189 -45.032288 -51.903154 0.000004 -10.183136 0.000004 12.374556 -5.339231 -13.499369 -5.028093 -5.811533 3.228175 4.749795 4.239203 0.438822 0.000002 0.000001 -0.000001 -0.601529 -7.992552 -6.244714 0.116366 1.163078 -11.426943 0.000002 0.000001 0.000000 0.674961 5.505640 -14.074128 0.297145 1.843791 -18.308269 -0.000000 0.000000 0.000001 4.772903 13.847623 -24.349204 0.447657 2.247940 -22.522902 -0.000002 0.000001 0.000002 5.633350 20.930029 -30.602243 0.723937 2.822895 -28.761865 -0.000001 -0.000005 -0.000001 -0.000001 -0.000000 0.000001 -0.000001 -0.000000 0.000001 -0.000002 -0.000000 0.000001 0.000002 0.000000 -0.000002 0.000002 -0.000001 -0.000002 0.000002 0.000000 -0.000002 0.000001 0.000000 -0.000002 6.926003 5.817689 12.863273 -42.770528 43.426845 63.824955 0.000005 10.475775 -0.000020 38.921147 14.038000 -7.186589 -5.813913 7.516317 -2.290716 5.270380 -5.906914 -1.308261 0.000000 -0.000003 0.000001 -0.678072 9.071924 7.351703 0.155017 -1.192785 14.808550 0.000000 0.000000 -0.000000 0.658090 -5.128421 15.292163 0.323692 -1.707543 21.465932 0.000000 0.000000 0.000000 5.394242 -14.079507 26.242900 0.462522 -2.025182 25.726522 -0.000000 -0.000001 0.000002 6.261631 -21.372685 32.469353 0.696905 -2.452553 31.721120 0.000001 -0.000000 0.000001 -0.000001 0.000000 -0.000001 -0.000001 0.000002 -0.000002 -0.000001 -0.000000 -0.000001 0.000003 -0.000001 0.000000 0.000003 -0.000001 -0.000000 0.000003 -0.000001 0.000000 0.000003 -0.000001 -0.000000 -0.000002 0.000000 0.000000 -0.000002 0.000000 0.000000 -0.000002 0.000000 0.000000 -0.000002 0.000000 0.000000 -0.000002 0.000000 0.000000 -0.000002 0.000000 0.000000 -0.000002 0.000000 0.000000 -0.000001 0.000000 -0.000000 -0.000000 -0.000000 -0.000000 
-1.044993 84.591873 -5.291545 5.954186 -1.114725 -0.673429 -0.000000 -0.000000 -0.000000 -39.890613 -4.172193 -2.093634 62.522110 5.731835 -1.490158 -28.143791 14.814977 -1.288109 0.000000 0.000001 0.000000 -0.000000 0.000000 0.000000 -39.821697 2.602458 2.936926 61.334559 1.752310 0.595891 -28.618870 -18.882966 -0.991463 0.000000 0.000000 -0.000000 0.000003 -0.000000 0.000000 17.046402 0.974023 0.399584 9.304534 0.485512 -0.078100 9.298627 0.574841 -0.143034 0.780871 -0.447506 0.745893 0.780843 -0.447506 0.745893 0.000002 0.000000 0.000000 0.780889 -0.447505 0.745893 0.780902 -0.447508 0.745894 0.000000 0.000000 -0.000000 0.000002 0.000000 0.000000 5.121984 -15.782926 -5.904388 -38.123934 -48.166976 -53.383037 0.000011 -8.848216 0.000009 15.331067 -5.159568 -12.130678 -5.145254 -6.147462 3.420583 4.691783 3.860340 0.393838 0.000002 0.000003 0.000003 -0.534439 -8.062792 -4.383934 0.067368 0.886756 -8.687232 0.000000 -0.000000 -0.000001 0.558211 5.285941 -11.996101 0.211055 1.559805 -15.410018 -0.000001 0.000000 -0.000000 4.209287 13.535253 -22.064084 0.339611 1.967371 -19.585083 0.000001 -0.000001 0.000000 5.051967 20.474361 -28.151786 0.581735 2.547012 -25.727069 0.000002 -0.000003 -0.000005 0.000001 0.000001 -0.000000 0.000001 0.000001 -0.000000 0.000000 0.000001 -0.000000 -0.000000 -0.000001 0.000001 0.000000 0.000001 0.000001 -0.000000 -0.000001 0.000001 -0.000001 -0.000000 0.000001 6.922067 5.440177 11.541209 -47.528110 44.778676 67.839543 -0.000000 8.455878 0.000001 44.098222 12.829732 -5.170612 -5.955113 7.900709 -2.500303 5.231997 -5.619561 -1.278606 0.000002 0.000000 -0.000002 -0.553123 8.972761 5.441210 0.101721 -0.969074 11.984533 0.000000 0.000002 -0.000002 0.566692 -5.004969 13.323171 0.244684 -1.491236 18.636700 0.000000 0.000000 0.000001 4.804503 -13.798299 24.027414 0.366515 -1.812604 22.859984 0.000000 0.000004 0.000003 5.681129 -20.968834 30.222918 0.580668 -2.253857 28.890498 -0.000001 0.000002 -0.000000 0.000001 0.000000 -0.000001 -0.000001 -0.000001 -0.000000 0.000001 0.000000 -0.000001 0.000001 -0.000001 0.000001 0.000000 0.000000 0.000000 0.000001 -0.000001 0.000001 0.000000 -0.000000 0.000000 0.000003 0.000000 0.000000 0.000003 0.000000 0.000000 0.000003 0.000000 0.000000 0.000003 0.000000 0.000000 0.000003 0.000000 0.000000 0.000003 0.000000 0.000000 0.000003 0.000000 0.000000 0.000001 0.000000 -0.000000 -0.000000 -0.000000 -0.000000 
-1.048842 84.093033 -5.549272 5.458306 -1.296679 -0.615321 -0.000000 -0.000000 0.000000 -40.377623 -4.109139 -2.324438 64.121591 5.756278 -1.337140 -28.733704 15.146170 -1.405725 0.000000 0.000002 -0.000000 0.000003 -0.000000 -0.000000 -40.512809 2.963688 3.428628 63.073874 1.648046 0.259378 -29.138202 -19.342816 -0.824295 -0.000000 0.000000 -0.000000 -0.000001 0.000000 -0.000000 18.086821 0.963823 0.405527 9.793157 0.488450 -0.048565 9.786600 0.594990 -0.122846 1.851948 -0.461888 0.563656 1.851916 -0.461888 0.563655 -0.000002 0.000000 -0.000000 1.852037 -0.461887 0.563656 1.851862 -0.461886 0.563654 0.000006 0.000000 -0.000000 -0.000002 0.000000 -0.000000 5.268922 -15.038135 -5.745082 -40.925998 -49.802137 -56.277415 -0.000007 -8.298807 0.000009 21.841236 -4.200385 -9.046560 -5.191307 -6.293513 3.601821 4.670717 3.716303 0.374802 0.000001 -0.000001 -0.000001 -0.399383 -7.935484 -3.098179 0.038943 0.675058 -6.602459 -0.000000 -0.000000 -0.000001 0.472752 5.095608 -10.450934 0.153701 1.334361 -13.138323 0.000000 0.000000 -0.000002 3.713450 13.087512 -20.277421 0.265024 1.743722 -17.281944 0.000000 0.000001 -0.000000 4.437838 19.788757 -26.142515 0.477866 2.319310 -23.280555 0.000002 -0.000007 0.000002 -0.000003 -0.000000 0.000000 -0.000003 -0.000000 0.000000 -0.000004 -0.000000 0.000000 -0.000002 0.000000 0.000001 -0.000002 -0.000001 0.000001 -0.000002 0.000000 0.000001 -0.000003 0.000001 0.000001 6.897047 4.903441 10.217715 -52.676908 45.134201 72.335801 0.000003 6.839556 0.000002 49.627926 10.500124 -0.599929 -6.056211 8.163499 -2.707428 5.214249 -5.486892 -1.264847 0.000001 -0.000002 0.000003 -0.450823 8.702396 3.893548 0.064870 -0.775444 9.564164 -0.000000 -0.000001 0.000001 0.495098 -4.903024 11.718039 0.185564 -1.302805 16.210913 -0.000001 0.000000 -0.000000 4.252278 -13.378011 22.134490 0.292763 -1.626681 20.402210 0.000000 -0.000001 -0.000001 5.069663 -20.366907 28.281993 0.488910 -2.079025 26.463588 0.000001 0.000003 -0.000000 0.000000 0.000001 -0.000001 0.000000 0.000000 -0.000001 0.000000 0.000001 -0.000001 -0.000002 0.000001 -0.000001 -0.000002 0.000002 -0.000001 -0.000002 0.000001 -0.000001 -0.000002 0.000002 -0.000001 -0.000001 -0.000000 0.000000 -0.000001 -0.000000 0.000000 -0.000001 -0.000000 0.000000 -0.000001 -0.000000 0.000000 -0.000001 -0.000000 0.000000 -0.000001 -0.000000 0.000000 -0.000001 -0.000000 0.000000 0.000001 0.000000 0.000000 -0.000000 -0.000000 0.000000 
